<svg width="512" height="512" viewBox="0 0 512 512" fill="none" xmlns="http://www.w3.org/2000/svg">
  <!-- Background Circle -->
  <circle cx="256" cy="256" r="256" fill="#22c55e"/>
  
  <!-- Inner Circle -->
  <circle cx="256" cy="256" r="200" fill="#ffffff" fill-opacity="0.1"/>
  
  <!-- Building/Store Icon -->
  <g transform="translate(156, 156)">
    <!-- Building Base -->
    <rect x="0" y="120" width="200" height="80" rx="8" fill="white"/>
    
    <!-- Building Main -->
    <rect x="20" y="40" width="160" height="120" rx="8" fill="white"/>
    
    <!-- Roof -->
    <path d="M10 40 L100 10 L190 40 Z" fill="white"/>
    
    <!-- Windows -->
    <rect x="40" y="60" width="25" height="25" rx="4" fill="#22c55e"/>
    <rect x="75" y="60" width="25" height="25" rx="4" fill="#22c55e"/>
    <rect x="110" y="60" width="25" height="25" rx="4" fill="#22c55e"/>
    <rect x="145" y="60" width="25" height="25" rx="4" fill="#22c55e"/>
    
    <rect x="40" y="95" width="25" height="25" rx="4" fill="#22c55e"/>
    <rect x="75" y="95" width="25" height="25" rx="4" fill="#22c55e"/>
    <rect x="110" y="95" width="25" height="25" rx="4" fill="#22c55e"/>
    <rect x="145" y="95" width="25" height="25" rx="4" fill="#22c55e"/>
    
    <!-- Door -->
    <rect x="85" y="130" width="30" height="40" rx="4" fill="#22c55e"/>
    
    <!-- Number 96 -->
    <text x="100" y="185" font-family="Arial Black" font-size="24" font-weight="bold" text-anchor="middle" fill="white">96</text>
  </g>
</svg> 